<svg width="1200" height="630" viewBox="0 0 1200 630" xmlns="http://www.w3.org/2000/svg">
<defs>
  <linearGradient id="bg" x1="0" y1="0" x2="1" y2="1">
    <stop offset="0%" stop-color="#09090b"/>
    <stop offset="100%" stop-color="#0f0f13"/>
  </linearGradient>
  <linearGradient id="glowL" x1="0" y1="0" x2="1" y2="1">
    <stop offset="0%" stop-color="#7c3aed" stop-opacity="0.22"/>
    <stop offset="100%" stop-color="#7c3aed" stop-opacity="0"/>
  </linearGradient>
  <linearGradient id="glowR" x1="1" y1="1" x2="0" y2="0">
    <stop offset="0%" stop-color="#06b6d4" stop-opacity="0.18"/>
    <stop offset="100%" stop-color="#06b6d4" stop-opacity="0"/>
  </linearGradient>
  <linearGradient id="titleGrad" x1="0" y1="0" x2="1" y2="0">
    <stop offset="0%" stop-color="#a78bfa"/>
    <stop offset="100%" stop-color="#67e8f9"/>
  </linearGradient>
  <linearGradient id="barGrad" x1="0" y1="0" x2="1" y2="0">
    <stop offset="0%" stop-color="#7c3aed"/>
    <stop offset="100%" stop-color="#06b6d4"/>
  </linearGradient>
  <!-- Violet arrow — internet to nginx -->
  <marker id="arrV" viewBox="0 0 10 10" refX="8" refY="5" markerWidth="7" markerHeight="7" orient="auto-start-reverse">
    <path d="M2 1L8 5L2 9" fill="none" stroke="#a78bfa" stroke-width="1.5" stroke-linecap="round" stroke-linejoin="round"/>
  </marker>
  <!-- Cyan arrow — user-ui/admin-ui → api -->
  <marker id="arrC" viewBox="0 0 10 10" refX="8" refY="5" markerWidth="7" markerHeight="7" orient="auto-start-reverse">
    <path d="M2 1L8 5L2 9" fill="none" stroke="#67e8f9" stroke-width="1.5" stroke-linecap="round" stroke-linejoin="round"/>
  </marker>
  <!-- Green arrow — api → database -->
  <marker id="arrG" viewBox="0 0 10 10" refX="8" refY="5" markerWidth="7" markerHeight="7" orient="auto-start-reverse">
    <path d="M2 1L8 5L2 9" fill="none" stroke="#86efac" stroke-width="1.5" stroke-linecap="round" stroke-linejoin="round"/>
  </marker>
</defs>

<!-- Background -->
<rect width="1200" height="630" fill="url(#bg)"/>

<!-- Grid -->
<g opacity="0.035" stroke="#ffffff" stroke-width="1">
  <line x1="0" y1="60" x2="1200" y2="60"/><line x1="0" y1="120" x2="1200" y2="120"/>
  <line x1="0" y1="180" x2="1200" y2="180"/><line x1="0" y1="240" x2="1200" y2="240"/>
  <line x1="0" y1="300" x2="1200" y2="300"/><line x1="0" y1="360" x2="1200" y2="360"/>
  <line x1="0" y1="420" x2="1200" y2="420"/><line x1="0" y1="480" x2="1200" y2="480"/>
  <line x1="0" y1="540" x2="1200" y2="540"/><line x1="0" y1="600" x2="1200" y2="600"/>
  <line x1="60" y1="0" x2="60" y2="630"/><line x1="120" y1="0" x2="120" y2="630"/>
  <line x1="180" y1="0" x2="180" y2="630"/><line x1="240" y1="0" x2="240" y2="630"/>
  <line x1="300" y1="0" x2="300" y2="630"/><line x1="360" y1="0" x2="360" y2="630"/>
  <line x1="420" y1="0" x2="420" y2="630"/><line x1="480" y1="0" x2="480" y2="630"/>
  <line x1="540" y1="0" x2="540" y2="630"/><line x1="600" y1="0" x2="600" y2="630"/>
  <line x1="660" y1="0" x2="660" y2="630"/><line x1="720" y1="0" x2="720" y2="630"/>
  <line x1="780" y1="0" x2="780" y2="630"/><line x1="840" y1="0" x2="840" y2="630"/>
  <line x1="900" y1="0" x2="900" y2="630"/><line x1="960" y1="0" x2="960" y2="630"/>
  <line x1="1020" y1="0" x2="1020" y2="630"/><line x1="1080" y1="0" x2="1080" y2="630"/>
  <line x1="1140" y1="0" x2="1140" y2="630"/>
</g>

<!-- Glow -->
<ellipse cx="-40" cy="80" rx="500" ry="380" fill="url(#glowL)"/>
<ellipse cx="1240" cy="550" rx="500" ry="380" fill="url(#glowR)"/>

<!-- Top accent bar -->
<rect x="0" y="0" width="1200" height="4" fill="url(#barGrad)"/>

<!-- Vertical separator -->
<line x1="645" y1="120" x2="645" y2="510" stroke="#27272a" stroke-width="1"/>

<!-- ═══════════════════════════════════════════
     ARCHITECTURE DIAGRAM — right panel
     Layout (right panel x: 660–1160, center 910):
       user-ui   center x=740  y=145–202
       admin-ui  center x=1040 y=145–202
       api       center x=905  y=265–335
       database  center x=905  y=400–458
     ═══════════════════════════════════════════ -->

<!-- K8s cluster boundary ring -->
<circle cx="905" cy="315" r="215" fill="none" stroke="#7c3aed" stroke-width="1" stroke-dasharray="10 7" opacity="0.18"/>
<text x="905" y="122" text-anchor="middle" font-family="monospace" font-size="15" fill="#7c3aed" opacity="0.45">kubernetes cluster</text>

<!-- ── user-ui box ─── center x=740, y=145, bottom=202 -->
<rect x="665" y="145" width="150" height="57" rx="10" fill="#0d1a1f" stroke="#06b6d4" stroke-width="1.8"/>
<text x="740" y="173" text-anchor="middle" font-family="monospace" font-size="14" fill="#67e8f9" font-weight="600">user-ui</text>
<text x="740" y="193" text-anchor="middle" font-family="monospace" font-size="11" fill="#164e63">Next.js 14</text>

<!-- ── admin-ui box ── center x=1040, y=145, bottom=202 -->
<rect x="965" y="145" width="150" height="57" rx="10" fill="#0d1a1f" stroke="#06b6d4" stroke-width="1.8"/>
<text x="1040" y="173" text-anchor="middle" font-family="monospace" font-size="14" fill="#67e8f9" font-weight="600">admin-ui</text>
<text x="1040" y="193" text-anchor="middle" font-family="monospace" font-size="11" fill="#164e63">Next.js 14</text>

<!-- ── Arrow: user-ui bottom-center(740,202) → api top-left(855,265) ── -->
<line x1="740" y1="202" x2="858" y2="263"
  stroke="#06b6d4" stroke-width="2" fill="none" marker-end="url(#arrC)"/>
<!-- HTTP label on arrow -->
<text x="777" y="225" font-family="monospace" font-size="10" fill="#164e63" transform="rotate(-35 777 225)">HTTP</text>

<!-- ── Arrow: admin-ui bottom-center(1040,202) → api top-right(952,265) ── -->
<line x1="1040" y1="202" x2="952" y2="263"
  stroke="#06b6d4" stroke-width="2" fill="none" marker-end="url(#arrC)"/>
<!-- HTTP label on arrow -->
<text x="1012" y="222" font-family="monospace" font-size="10" fill="#164e63" transform="rotate(35 1012 222)">HTTP</text>

<!-- ── api box ── center x=905, y=265–335 -->
<rect x="805" y="265" width="200" height="70" rx="10" fill="#1a1025" stroke="#7c3aed" stroke-width="2.5"/>
<text x="905" y="297" text-anchor="middle" font-family="monospace" font-size="17" fill="#a78bfa" font-weight="700">api</text>
<text x="905" y="318" text-anchor="middle" font-family="monospace" font-size="11" fill="#4c1d95">Node.js / Express</text>

<!-- ── Arrow: api bottom-center(905,335) → database top-center(905,400) ── -->
<line x1="905" y1="335" x2="905" y2="398"
  stroke="#22c55e" stroke-width="2" fill="none" marker-end="url(#arrG)"/>
<!-- SQL label on arrow -->
<text x="915" y="370" font-family="monospace" font-size="10" fill="#14532d">SQL</text>

<!-- ── database box ── center x=905, y=400–458 -->
<rect x="805" y="400" width="200" height="57" rx="10" fill="#0a1a10" stroke="#22c55e" stroke-width="1.8"/>
<text x="905" y="428" text-anchor="middle" font-family="monospace" font-size="14" fill="#86efac" font-weight="600">database</text>
<text x="905" y="447" text-anchor="middle" font-family="monospace" font-size="11" fill="#14532d">PostgreSQL 16</text>

<!-- ── nginx ingress ── left of api -->
<rect x="680" y="283" width="108" height="36" rx="8" fill="#0c0c14" stroke="#7c3aed" stroke-width="1" stroke-dasharray="5 3"/>
<text x="734" y="299" text-anchor="middle" font-family="monospace" font-size="11" fill="#7c3aed">nginx</text>
<text x="734" y="313" text-anchor="middle" font-family="monospace" font-size="10" fill="#4c1d95">ingress</text>

<!-- Arrow: nginx → api left edge -->
<line x1="788" y1="301" x2="803" y2="301"
  stroke="#a78bfa" stroke-width="1.8" fill="none" marker-end="url(#arrV)"/>

<!-- Arrow: internet → nginx -->
<line x1="658" y1="301" x2="678" y2="301"
  stroke="#a78bfa" stroke-width="1.5" fill="none" marker-end="url(#arrV)" opacity="0.6"/>
<text x="610" y="296" text-anchor="middle" font-family="monospace" font-size="10" fill="#71717a">internet</text>
<text x="610" y="310" text-anchor="middle" font-family="monospace" font-size="10" fill="#52525b">johnisah.com</text>

<!-- ═══════════════════════════════════════════
     LEFT CONTENT — unchanged
     ═══════════════════════════════════════════ -->

<!-- Status badge -->
<rect x="70" y="76" width="182" height="30" rx="15" fill="#052e16" stroke="#16a34a" stroke-width="1"/>
<circle cx="90" cy="91" r="5" fill="#4ade80"/>
<text x="103" y="96" font-family="system-ui,sans-serif" font-size="14" fill="#86efac">production / live at k8s</text>

<!-- Main title -->
<text x="70" y="190" font-family="system-ui,sans-serif" font-size="72" font-weight="700" fill="url(#titleGrad)">Portfolio MCS</text>

<!-- Subtitle -->
<text x="70" y="228" font-family="system-ui,sans-serif" font-size="22" fill="#a1a1aa">Cloud-Native Microservices Portfolio Platform</text>

<!-- Accent bar -->
<rect x="70" y="250" width="80" height="3" rx="1.5" fill="url(#barGrad)"/>

<!-- Feature bullets -->
<g font-family="system-ui,sans-serif" font-size="18" fill="#d4d4d8">
  <text x="70" y="294"><tspan fill="#7c3aed" font-size="20">+</tspan><tspan dx="10">4 containerised services on Kubernetes</tspan></text>
  <text x="70" y="328"><tspan fill="#06b6d4" font-size="20">+</tspan><tspan dx="10">GitHub Actions CI/CD · images on GHCR</tspan></text>
  <text x="70" y="362"><tspan fill="#7c3aed" font-size="20">+</tspan><tspan dx="10">Infisical secrets · cert-manager TLS</tspan></text>
  <text x="70" y="396"><tspan fill="#06b6d4" font-size="20">+</tspan><tspan dx="10">Zoho Mail SMTP · Twilio SMS · Cloudflare</tspan></text>
</g>

<!-- Tech pills row 1 -->
<g font-family="system-ui,sans-serif" font-size="13">
  <rect x="70" y="430" width="100" height="28" rx="14" fill="#1e1033" stroke="#7c3aed" stroke-width="1.2"/>
  <text x="120" y="449" text-anchor="middle" fill="#a78bfa">Next.js 14</text>
  <rect x="180" y="430" width="100" height="28" rx="14" fill="#1e1033" stroke="#7c3aed" stroke-width="1.2"/>
  <text x="230" y="449" text-anchor="middle" fill="#a78bfa">Node.js 20</text>
  <rect x="290" y="430" width="120" height="28" rx="14" fill="#0a2030" stroke="#06b6d4" stroke-width="1.2"/>
  <text x="350" y="449" text-anchor="middle" fill="#67e8f9">Kubernetes</text>
  <rect x="420" y="430" width="86" height="28" rx="14" fill="#0a2030" stroke="#06b6d4" stroke-width="1.2"/>
  <text x="463" y="449" text-anchor="middle" fill="#67e8f9">Docker</text>
  <rect x="516" y="430" width="130" height="28" rx="14" fill="#0a2030" stroke="#06b6d4" stroke-width="1.2"/>
  <text x="581" y="449" text-anchor="middle" fill="#67e8f9">PostgreSQL 16</text>
</g>

<!-- Tech pills row 2 -->
<g font-family="system-ui,sans-serif" font-size="13">
  <rect x="70" y="468" width="100" height="28" rx="14" fill="#1e1033" stroke="#7c3aed" stroke-width="1.2"/>
  <text x="120" y="487" text-anchor="middle" fill="#a78bfa">TypeScript</text>
  <rect x="180" y="468" width="130" height="28" rx="14" fill="#102010" stroke="#22c55e" stroke-width="1.2"/>
  <text x="245" y="487" text-anchor="middle" fill="#86efac">GitHub Actions</text>
  <rect x="320" y="468" width="90" height="28" rx="14" fill="#102010" stroke="#22c55e" stroke-width="1.2"/>
  <text x="365" y="487" text-anchor="middle" fill="#86efac">Infisical</text>
  <rect x="420" y="468" width="74" height="28" rx="14" fill="#102010" stroke="#22c55e" stroke-width="1.2"/>
  <text x="457" y="487" text-anchor="middle" fill="#86efac">Nginx</text>
  <rect x="504" y="468" width="100" height="28" rx="14" fill="#1e1033" stroke="#7c3aed" stroke-width="1.2"/>
  <text x="554" y="487" text-anchor="middle" fill="#a78bfa">Zoho Mail</text>
</g>

<!-- URL watermark -->
<text x="70" y="560" font-family="monospace" font-size="15" fill="#3f3f46">johnisah.com  |  github.com/johnitopaisah/portfolio-mcs</text>

<!-- Bottom accent bar -->
<rect x="0" y="626" width="1200" height="4" fill="url(#barGrad)"/>
</svg>
